<svg t="1741428854911" class="icon" viewBox="0 0 1024 1024" version="1.1" xmlns="http://www.w3.org/2000/svg" p-id="9754" width="256" height="256"><path d="M902.8 294.6L406.6 790.8c-4.4 4.4-11.6 4.4-16 0L232.7 632.9c-4.4-4.4-4.4-11.6 0-16l496.2-496.2c47.8-47.8 126-47.8 173.8 0 23.9 23.9 35.9 55.4 35.9 86.9 0 31.5-11.9 63.1-35.8 87z" fill="#BD9EE2" p-id="9755"></path><path d="M229.5 808.1c3.9-3.9 3.9-10.2 0-14.1-3.9-3.9-10.2-3.9-14.1 0l-131 130.9L136 659.7h227.8l0.1 227.9-265.4 51.5 131-131z" fill="#FEF8E6" p-id="9756"></path><path d="M167 870.6l141.5-27.4-0.1-183.5h55.4l0.1 227.9-265.4 51.5z" fill="#FCEFAD" p-id="9757"></path><path d="M734.3 590.1c-7.8-7.8-7.8-20.5 0-28.3L884 412.2c20.9-20.9 20.9-54.9 0-75.8l-42.6-42.6c-7.8-7.8-7.8-20.5 0-28.3 7.8-7.8 20.5-7.8 28.3 0l42.6 42.6c36.5 36.5 36.5 95.9 0 132.4L762.6 590.1c-7.8 7.8-20.4 7.8-28.3 0z" fill="#46CDFB" p-id="9758"></path><path d="M902.8 294.6l-66 66-174-173.8 66-66c47.8-47.8 126-47.8 173.8 0 23.9 23.9 35.9 55.4 35.9 86.9 0.1 31.4-11.8 63-35.7 86.9zM497 700.4l-90.4 90.4c-4.4 4.4-11.6 4.4-16 0L232.7 632.9c-4.4-4.4-4.4-11.6 0-16l90.4-90.4L497 700.4z" fill="#FDF17F" p-id="9759"></path><path d="M211.9 825.7l17.5-17.5c3.9-3.9 3.9-10.2 0-14.1-3.9-3.9-10.2-3.9-14.1 0l-17.4 17.4v-49.2h63.4v63.4h-49.4z" fill="#8ADCFF" p-id="9760"></path><path d="M902.8 294.6L406.6 790.8c-4.4 4.4-11.6 4.4-16 0L352.8 753l519.3-519.3c25.6-25.6 38.5-59.5 38.4-93.3 0-3.9-0.1-7.7-0.5-11.6 19 22.7 28.5 50.8 28.5 78.8 0.1 31.5-11.8 63.1-35.7 87z" fill="#978CDB" p-id="9761"></path><path d="M902.8 294.6l-66 66-45.8-45.8 81.2-81.2c25.6-25.6 38.5-59.5 38.4-93.3 0-3.9-0.1-7.7-0.5-11.6 19 22.7 28.5 50.8 28.5 78.8 0 31.6-11.9 63.2-35.8 87.1zM497 700.4l-90.4 90.4c-4.4 4.4-11.6 4.4-16 0L352.8 753l98.4-98.4 45.8 45.8z" fill="#FAD672" p-id="9762"></path></svg>