<svg t="1741435985199" class="icon" viewBox="0 0 1024 1024" version="1.1" xmlns="http://www.w3.org/2000/svg" p-id="22205" width="256" height="256"><path d="M860.407108 161.387667 193.285145 161.387667c-61.402465 0-111.187335 49.783847-111.187335 111.187335l0 444.747293c0 61.402465 49.783847 111.187335 111.187335 111.187335L860.407108 828.50963c61.402465 0 111.187335-49.783847 111.187335-111.187335L971.594443 272.573979C971.59342 211.171514 921.809573 161.387667 860.407108 161.387667zM888.204198 216.980823 526.846126 494.947626 165.489078 216.980823 888.204198 216.980823zM137.691989 717.322295 137.691989 272.573979l250.170736 194.57758L140.323932 733.391273C138.77874 728.288045 137.691989 722.967876 137.691989 717.322295zM180.934862 771.423471l250.849188-267.298835 95.062076 71.851445 90.964758-72.285327 254.946506 267.732717C868.76752 772.34547 184.92371 772.34547 180.934862 771.423471zM916.000264 717.322295c0 5.64558-1.086751 10.966773-2.632967 16.070001l-247.537769-266.240737 250.170736-194.57758L916.000264 717.322295 916.000264 717.322295z" fill="#272636" p-id="22206"></path></svg>