<svg t="1741436376429" class="icon" viewBox="0 0 1123 1024" version="1.1" xmlns="http://www.w3.org/2000/svg" p-id="29517" width="256" height="256"><path d="M309.581 162.938H188.005c-42.615 0-81.469 17.547-110.296 45.12-27.574 28.828-45.121 67.683-45.121 110.297v517.64c0 42.615 17.547 81.469 45.12 109.043 28.828 28.827 67.682 46.374 110.297 46.374H935.01c42.614 0 81.469-17.547 110.296-46.374 27.574-27.574 45.121-66.428 45.121-109.043v-517.64c0-42.614-17.547-81.469-45.12-110.296-28.828-27.574-67.683-45.121-110.297-45.121h-122.83c-8.773 0-16.294-7.52-16.294-16.294V96.509c0-17.547-6.266-33.84-18.8-45.121-11.28-11.28-27.574-18.8-45.121-18.8h-342.17c-17.546 0-33.84 7.52-45.12 18.8s-18.8 27.574-18.8 45.121v50.135c0 8.773-7.521 16.294-16.295 16.294z m251.927 186.751c72.695 0 137.87 30.08 185.498 77.709 47.628 46.374 76.455 112.803 76.455 185.498 0 71.442-28.827 137.87-76.455 184.245-47.628 47.628-112.803 77.708-185.498 77.708s-137.87-30.08-185.498-77.708c-47.628-46.375-76.456-112.803-76.456-184.245 0-72.695 28.828-139.124 76.456-185.498 47.628-47.628 112.803-77.709 185.498-77.709z m-368.49-86.482c20.054 0 36.348 7.52 48.882 20.054s20.053 30.08 20.053 48.881-7.52 36.348-20.053 48.881c-12.534 11.28-28.828 20.054-48.882 20.054-18.8 0-35.094-8.773-47.628-20.054-12.533-12.533-20.053-30.08-20.053-48.881s7.52-36.348 20.053-48.881 28.828-20.054 47.628-20.054z" fill="#FFCF1C" p-id="29518"></path><path d="M188.005 130.35h105.283V96.51c0-26.322 10.027-50.135 27.574-67.683C339.662 11.28 363.476 0 389.797 0h342.169c26.32 0 51.388 11.28 68.935 28.827s27.574 41.361 27.574 67.682v33.841H935.01c51.388 0 99.016 21.307 132.857 55.148s55.148 80.216 55.148 132.857v517.64c0 51.388-21.307 97.763-55.148 131.604-33.841 35.094-81.469 56.401-132.857 56.401H188.005c-51.388 0-99.016-21.307-132.857-56.401C21.308 933.758 0 887.383 0 835.995v-517.64c0-52.641 21.307-99.016 55.148-132.857s81.469-55.148 132.857-55.148z m373.503 219.34c72.695 0 137.87 30.08 185.498 77.708 47.628 46.374 76.455 112.803 76.455 185.498 0 71.442-28.827 137.87-76.455 184.245-47.628 47.628-112.803 77.708-185.498 77.708s-137.87-30.08-185.498-77.708c-47.628-46.375-76.456-112.803-76.456-184.245 0-72.695 28.828-139.124 76.456-185.498 47.628-47.628 112.803-77.709 185.498-77.709z m162.938 100.268c-42.615-41.36-99.016-67.681-162.938-67.681s-120.323 26.32-162.938 67.681c-41.36 41.361-66.428 99.016-66.428 162.938 0 62.668 25.067 120.323 66.428 161.684 42.615 41.361 99.016 67.682 162.938 67.682s120.323-26.32 162.938-67.682c41.36-41.36 66.428-99.016 66.428-161.684 0-63.922-25.067-121.577-66.428-162.938zM193.018 263.207c20.054 0 36.348 7.52 48.882 20.054s20.053 30.08 20.053 48.881-7.52 36.348-20.053 48.881c-12.534 11.28-28.828 20.054-48.882 20.054-18.8 0-35.094-8.773-47.628-20.054-12.533-12.533-20.053-30.08-20.053-48.881s7.52-36.348 20.053-48.881 28.828-20.054 47.628-20.054z m26.321 42.614c-6.267-6.267-16.294-10.027-26.32-10.027s-18.801 3.76-25.068 10.027c-6.267 7.52-10.027 16.294-10.027 26.321s3.76 18.8 10.027 25.067 15.04 11.28 25.067 11.28 20.054-5.013 26.321-11.28 10.027-15.04 10.027-25.067-3.76-18.8-10.027-26.32z m90.242-142.883H188.005c-42.615 0-81.469 17.547-110.296 45.12-27.574 28.828-45.121 67.683-45.121 110.297v517.64c0 42.615 17.547 81.469 45.12 109.043 28.828 28.827 67.682 46.374 110.297 46.374H935.01c42.614 0 81.469-17.547 110.296-46.374 27.574-27.574 45.121-66.428 45.121-109.043v-517.64c0-42.614-17.547-81.469-45.12-110.296-28.828-27.574-67.683-45.121-110.297-45.121h-122.83c-8.773 0-16.294-7.52-16.294-16.294V96.509c0-17.547-6.266-33.84-18.8-45.121-11.28-11.28-27.574-18.8-45.121-18.8h-342.17c-17.546 0-33.84 7.52-45.12 18.8s-18.8 27.574-18.8 45.121v50.135c0 8.773-7.521 16.294-16.295 16.294z" fill="#2A2A2A" p-id="29519"></path></svg>