<svg t="1741430757422" class="icon" viewBox="0 0 1024 1024" version="1.1" xmlns="http://www.w3.org/2000/svg" p-id="18325" width="256" height="256"><path d="M549.546667 798.72c-23.893333 0-47.786667-10.24-64.853334-27.306667-37.546667-37.546667-37.546667-95.573333 0-129.706666l44.373334-44.373334h-273.066667c-58.026667 0-102.4-44.373333-102.4-102.4s44.373333-102.4 102.4-102.4h276.48l-44.373333-47.786666c-37.546667-37.546667-37.546667-95.573333 0-129.706667 34.133333-34.133333 95.573333-34.133333 129.706666 0l235.52 235.52c23.893333 23.893333 23.893333 61.44 0 85.333333l-235.52 235.52c-20.48 17.066667-40.96 27.306667-68.266666 27.306667zM256 426.666667c-37.546667 0-68.266667 30.72-68.266667 68.266666s30.72 68.266667 68.266667 68.266667h317.44c6.826667 0 13.653333 3.413333 17.066667 10.24 3.413333 6.826667 0 13.653333-3.413334 17.066667L512 662.186667c-23.893333 23.893333-23.893333 61.44 0 81.92 20.48 20.48 61.44 20.48 81.92 0l235.52-235.52c10.24-10.24 10.24-27.306667 0-37.546667L593.92 238.933333c-20.48-20.48-61.44-20.48-81.92 0-23.893333 23.893333-23.893333 61.44 0 81.92l75.093333 75.093334c3.413333 3.413333 6.826667 13.653333 3.413334 17.066666s-10.24 10.24-17.066667 10.24H256z" fill="#231F20" p-id="18326"></path><path d="M512 1006.933333C238.933333 1006.933333 17.066667 785.066667 17.066667 512S238.933333 17.066667 512 17.066667 1006.933333 238.933333 1006.933333 512 785.066667 1006.933333 512 1006.933333z m0-955.733333C259.413333 51.2 51.2 259.413333 51.2 512S259.413333 972.8 512 972.8 972.8 764.586667 972.8 512 764.586667 51.2 512 51.2z" fill="#231F20" p-id="18327"></path></svg>